<?xml version="1.0" encoding="UTF-8"?>
<svg xmlns="http://www.w3.org/2000/svg" xmlns:xlink="http://www.w3.org/1999/xlink" width="125px" height="90px" viewBox="0 0 84 60" version="1.1">
<g id="surface1">
<path style=" stroke:none;fill-rule:nonzero;fill:rgb(100%,0%,0%);fill-opacity:1;" d="M 5.75 30.597656 L 6.992188 26.238281 C 7.113281 25.789062 7.609375 25.378906 8.109375 25.378906 L 11.910156 25.378906 C 11.972656 25.378906 11.996094 25.460938 11.945312 25.496094 C 9.96875 26.847656 7.585938 28.855469 5.855469 30.652344 C 5.8125 30.699219 5.730469 30.664062 5.75 30.597656 "/>
<path style=" stroke:none;fill-rule:nonzero;fill:rgb(0%,0%,0%);fill-opacity:1;" d="M 37.5625 30.554688 L 36.851562 33.175781 C 36.699219 33.1875 36.511719 33.210938 36.21875 33.210938 C 34.820312 33.210938 34.976562 32.789062 35.566406 30.503906 C 36.179688 28.132812 36.539062 27.699219 37.410156 27.699219 C 38.253906 27.699219 38.257812 28.265625 38.042969 28.980469 L 40.179688 28.980469 C 40.523438 27.644531 40.292969 26.457031 37.796875 26.457031 C 35.019531 26.457031 34.265625 27.042969 33.371094 30.503906 C 32.535156 33.730469 32.808594 34.585938 35.8125 34.585938 C 37.238281 34.585938 37.835938 34.480469 38.703125 34.324219 L 39.707031 30.554688 Z M 42.652344 33.140625 C 42.375 33.140625 42.277344 33.054688 42.332031 32.828125 L 42.8125 30.933594 L 45.667969 30.933594 L 45.992188 29.691406 L 43.136719 29.691406 L 43.460938 28.425781 C 43.542969 28.09375 43.78125 27.8125 44.238281 27.8125 L 46.527344 27.8125 L 46.847656 26.570312 L 43.527344 26.570312 C 42.148438 26.570312 41.734375 26.816406 41.199219 28.886719 L 40.210938 32.679688 C 39.910156 33.953125 40.285156 34.503906 41.324219 34.503906 L 44.191406 34.503906 C 44.757812 34.503906 45.121094 34.207031 45.296875 33.746094 L 45.53125 33.140625 Z M 75.304688 33.140625 C 75.027344 33.140625 74.929688 33.054688 74.984375 32.828125 L 75.464844 30.933594 L 78.320312 30.933594 L 78.644531 29.691406 L 75.789062 29.691406 L 76.113281 28.425781 C 76.199219 28.09375 76.433594 27.8125 76.890625 27.8125 L 79.179688 27.8125 L 79.5 26.570312 L 76.179688 26.570312 C 74.800781 26.570312 74.386719 26.816406 73.851562 28.886719 L 72.863281 32.679688 C 72.5625 33.953125 72.941406 34.503906 73.980469 34.503906 L 76.847656 34.503906 C 77.410156 34.503906 77.773438 34.207031 77.949219 33.746094 L 78.183594 33.140625 Z M 28.289062 33.148438 L 27.703125 33.148438 L 29.085938 27.816406 C 29.261719 27.816406 29.328125 27.808594 29.765625 27.808594 C 31.007812 27.808594 31.003906 28.21875 30.414062 30.503906 C 29.816406 32.816406 29.46875 33.148438 28.289062 33.148438 M 30.121094 26.570312 L 27.265625 26.570312 L 25.273438 34.265625 C 25.238281 34.398438 25.316406 34.503906 25.445312 34.503906 L 27.992188 34.503906 C 31.1875 34.503906 31.726562 33.894531 32.601562 30.503906 C 33.363281 27.558594 32.894531 26.570312 30.121094 26.570312 M 70.09375 26.554688 C 68.449219 26.554688 67.683594 26.589844 67.234375 26.570312 L 65.242188 34.265625 C 65.207031 34.398438 65.285156 34.503906 65.414062 34.503906 L 67.324219 34.503906 L 69.054688 27.816406 C 69.230469 27.816406 69.5 27.800781 69.769531 27.800781 C 70.695312 27.800781 70.820312 28.128906 70.574219 29.074219 L 69.230469 34.265625 C 69.199219 34.398438 69.273438 34.503906 69.402344 34.503906 L 71.3125 34.503906 L 72.714844 29.074219 C 73.203125 27.195312 72.375 26.554688 70.09375 26.554688 M 53.558594 26.570312 L 53.226562 27.859375 L 55.351562 27.859375 C 55.371094 27.859375 55.371094 27.886719 55.351562 27.898438 C 55.011719 28.15625 54.804688 28.519531 54.707031 28.898438 L 53.316406 34.265625 C 53.28125 34.398438 53.359375 34.503906 53.488281 34.503906 L 55.539062 34.503906 L 57.261719 27.859375 L 58.3125 27.859375 C 58.902344 27.859375 59.257812 27.613281 59.457031 27.097656 L 59.660156 26.570312 Z M 23.832031 34.503906 L 25.824219 26.808594 C 25.855469 26.675781 25.78125 26.570312 25.652344 26.570312 L 23.632812 26.570312 L 21.640625 34.265625 C 21.605469 34.398438 21.683594 34.503906 21.8125 34.503906 Z M 61.175781 33.28125 C 60.257812 33.28125 60.125 32.949219 60.761719 30.472656 C 61.292969 28.417969 61.800781 27.699219 62.621094 27.699219 C 63.535156 27.699219 63.636719 28.191406 63.046875 30.472656 C 62.460938 32.738281 61.882812 33.28125 61.175781 33.28125 M 62.9375 26.460938 C 60.535156 26.460938 59.492188 26.886719 58.550781 30.539062 C 57.730469 33.699219 58.386719 34.617188 60.832031 34.617188 C 63.316406 34.617188 64.300781 34.105469 65.21875 30.539062 C 65.886719 27.957031 65.753906 26.460938 62.9375 26.460938 M 8.753906 33.214844 L 9.980469 28.910156 C 10 28.847656 9.929688 28.800781 9.878906 28.84375 C 8.066406 30.402344 5.882812 32.675781 4.515625 34.394531 C 4.484375 34.4375 4.5 34.503906 4.558594 34.503906 L 9.886719 34.503906 C 12.128906 34.503906 13.359375 33.808594 13.804688 32.148438 C 14.167969 30.792969 13.457031 29.871094 12.328125 29.632812 C 12.304688 29.628906 12.289062 29.589844 12.328125 29.582031 C 13.285156 29.417969 14.25 29.035156 14.59375 27.636719 C 14.96875 26.125 13.8125 25.292969 12.480469 25.378906 L 10.445312 32.503906 C 10.335938 32.890625 9.925781 33.214844 9.53125 33.214844 Z M 20.324219 31.324219 C 20.25 31.085938 20.175781 30.914062 20.0625 30.773438 C 20.046875 30.753906 20.042969 30.730469 20.070312 30.722656 C 20.984375 30.441406 21.578125 29.863281 21.832031 28.886719 C 22.167969 27.597656 21.351562 26.570312 19.296875 26.570312 L 16.242188 26.570312 L 14.25 34.265625 C 14.214844 34.398438 14.292969 34.503906 14.421875 34.503906 L 16.332031 34.503906 L 18.0625 27.816406 C 18.246094 27.816406 18.421875 27.808594 18.863281 27.808594 C 19.597656 27.808594 19.871094 28.261719 19.710938 28.875 C 19.503906 29.683594 18.875 30.136719 18.132812 30.136719 L 17.851562 30.136719 L 18.648438 33.976562 C 18.742188 34.351562 18.929688 34.503906 19.359375 34.503906 L 21.0625 34.503906 Z M 46.308594 31.816406 C 45.5 33.75 46.554688 34.625 48.699219 34.625 C 50.660156 34.625 51.746094 34.160156 52.210938 32.359375 C 52.371094 31.742188 52.269531 31.078125 51.890625 30.664062 C 51.160156 29.871094 49.75 29.71875 49.253906 29.257812 C 49 29.023438 49.003906 28.695312 49.078125 28.410156 C 49.210938 27.894531 49.558594 27.609375 50.125 27.609375 C 51.011719 27.609375 51.035156 28.15625 50.816406 28.800781 L 52.714844 28.800781 C 53.164062 27.449219 52.578125 26.390625 50.339844 26.390625 C 48.457031 26.390625 47.4375 27.132812 47.074219 28.546875 C 46.972656 28.9375 47.011719 29.570312 47.242188 29.96875 C 47.757812 30.851562 49.128906 30.960938 49.886719 31.488281 C 50.21875 31.71875 50.230469 32.027344 50.140625 32.367188 C 49.96875 33.027344 49.636719 33.34375 48.976562 33.34375 C 48.339844 33.34375 47.960938 32.976562 48.324219 31.816406 Z M 46.308594 31.816406 "/>
</g>
</svg>
